<svg id="taken" xmlns="http://www.w3.org/2000/svg" xmlns:xlink="http://www.w3.org/1999/xlink" viewBox="0 0 672.531500 738.393980" shape-rendering="geometricPrecision" text-rendering="geometricPrecision"><style><![CDATA[#taken-path1_to {animation: taken-path1_to__to 3000ms linear 1 normal forwards}@keyframes taken-path1_to__to { 0% {transform: translate(-263.734000px,-52.803000px)} 92.666667% {transform: translate(-263.734000px,-73.803000px)} 100% {transform: translate(-263.734000px,-63.803000px)} }#taken-path2_to {animation: taken-path2_to__to 3000ms linear 1 normal forwards}@keyframes taken-path2_to__to { 0% {transform: translate(-263.734000px,-52.803000px)} 92.666667% {transform: translate(-263.734000px,-73.803000px)} 100% {transform: translate(-263.734000px,-63.803000px)} }#taken-path3_to {animation: taken-path3_to__to 3000ms linear 1 normal forwards}@keyframes taken-path3_to__to { 0% {transform: translate(-263.734000px,-52.803000px)} 92.666667% {transform: translate(-263.734000px,-73.803000px)} 100% {transform: translate(-263.734000px,-63.803000px)} }#taken-path4_to {animation: taken-path4_to__to 3000ms linear 1 normal forwards}@keyframes taken-path4_to__to { 0% {transform: translate(-263.734000px,-52.803000px)} 92.666667% {transform: translate(-263.734000px,-73.803000px)} 100% {transform: translate(-263.734000px,-63.803000px)} }#taken-path5_to {animation: taken-path5_to__to 3000ms linear 1 normal forwards}@keyframes taken-path5_to__to { 0% {transform: translate(-263.734000px,-52.803000px)} 92.666667% {transform: translate(-263.734000px,-73.803000px)} 100% {transform: translate(-263.734000px,-63.803000px)} }#taken-path6_to {animation: taken-path6_to__to 3000ms linear 1 normal forwards}@keyframes taken-path6_to__to { 0% {transform: translate(-263.734000px,-52.803000px)} 92.666667% {transform: translate(-263.734000px,-73.803000px)} 100% {transform: translate(-263.734000px,-63.803000px)} }#taken-path7_to {animation: taken-path7_to__to 3000ms linear 1 normal forwards}@keyframes taken-path7_to__to { 0% {transform: translate(-263.734000px,-52.803000px)} 92.666667% {transform: translate(-263.734000px,-73.803000px)} 100% {transform: translate(-263.734000px,-63.803000px)} }#taken-path8_to {animation: taken-path8_to__to 3000ms linear 1 normal forwards}@keyframes taken-path8_to__to { 0% {transform: translate(-263.734000px,-52.803000px)} 92.666667% {transform: translate(-263.734000px,-73.803000px)} 100% {transform: translate(-263.734000px,-63.803000px)} }#taken-path9_to {animation: taken-path9_to__to 3000ms linear 1 normal forwards}@keyframes taken-path9_to__to { 0% {transform: translate(-263.734000px,-52.803000px)} 92.666667% {transform: translate(-263.734000px,-73.803000px)} 100% {transform: translate(-263.734000px,-63.803000px)} }]]></style><g id="taken-path1_to" transform="translate(-263.734000,-52.803000)"><path id="taken-path1" d="M730.734250,230.607000C684.114130,223.167000,631.024250,219.197000,575.734250,219.197000C525.134150,219.197000,476.384150,222.517000,432.754250,228.777000C432.764510,228.106950,432.774250,227.437000,432.804060,226.767000C435.209665,145.883936,501.730568,81.705555,582.647887,82.199897C663.565207,82.694239,729.297013,147.680582,730.714210,228.587000C730.724490,229.267000,730.734250,229.937000,730.734250,230.607000Z" transform="translate(0,0)" fill="rgb(114,63,76)" stroke="none" stroke-width="1"/></g><g id="taken-g1" opacity="0.1"><g id="taken-path2_to" transform="translate(-263.734000,-52.803000)"><path id="taken-path2" d="M601.284540,82.144320C559.436330,76.491797,517.154506,88.856077,484.945045,116.164946C452.735584,143.473815,433.621945,183.163825,432.353390,225.373000C432.323120,226.043000,432.313390,226.713000,432.303590,227.383000C445.265500,225.523190,458.688350,223.929500,472.468590,222.598690C475.946217,150.854137,530.107606,91.799309,601.284540,82.144320Z" transform="translate(0,0)" fill="rgb(255,255,255)" stroke="none" stroke-width="1"/></g></g><g id="taken-path3_to" transform="translate(-263.734000,-52.803000)"><path id="taken-path3" d="M795.914430,242.427000C774.454201,236.609378,752.687238,231.988920,730.714230,228.587000C694.699932,223.006168,658.392494,219.516986,621.974490,218.137000C606.804080,217.517000,591.354370,217.197000,575.734250,217.197000C563.354370,217.197000,551.074100,217.397000,538.964250,217.797000C503.440305,218.846551,468.000508,221.841036,432.804100,226.767000C406.749946,230.354606,380.948534,235.585029,355.554100,242.427000C296.344100,258.797000,263.734270,280.737000,263.734270,304.197000C263.734270,327.657000,296.344140,349.597000,355.554100,365.967000C397.194230,377.487000,448.534100,385.337000,504.474510,388.937000C527.564350,390.437000,551.434510,391.197000,575.734270,391.197000C600.114150,391.197000,624.064350,390.427000,647.224510,388.927000C698.134170,385.637000,745.234270,378.827000,784.654190,368.927000C784.864190,368.867000,785.064350,368.817000,785.274310,368.767000C787.934470,368.107000,790.554100,367.417000,793.144430,366.727000C794.074120,366.467000,794.994040,366.217000,795.914430,365.967000C795.966128,365.945805,796.019547,365.929077,796.074100,365.917000C796.954470,365.677000,797.824100,365.427000,798.694210,365.187000C800.434450,364.687000,802.154210,364.197000,803.844120,363.687000C803.924190,363.667000,803.994020,363.647000,804.064330,363.627000C805.534060,363.187000,806.974490,362.747000,808.404170,362.307000C809.574100,361.937000,810.734250,361.577000,811.884170,361.207000Q813.144680,360.802000,814.374410,360.397000C814.974510,360.197000,815.564350,360.007000,816.144410,359.807000C816.934410,359.547000,817.724490,359.277000,818.504270,359.007000C818.834350,358.897000,819.164430,358.787000,819.484270,358.667000C820.234270,358.417000,820.964270,358.157000,821.694270,357.897000C822.484270,357.617000,823.274350,357.327000,824.054140,357.047000C824.704530,356.817000,825.354430,356.577000,825.994080,356.337000C826.534080,356.127000,827.064390,355.927000,827.604430,355.727000C829.074160,355.177000,830.514590,354.606940,831.934510,354.047000C832.644510,353.757000,833.354430,353.477000,834.054140,353.187000C834.744080,352.907000,835.444270,352.617000,836.124450,352.327000Q837.803890,351.621940,839.424250,350.917000C839.944250,350.677000,840.474550,350.447000,840.984310,350.227060C841.374450,350.047060,841.754310,349.877060,842.144470,349.697060C842.424250,349.577060,842.704530,349.447060,842.974550,349.317060C843.984310,348.857060,844.984310,348.387060,845.964290,347.917060Q851.604680,345.217060,856.494080,342.397060C876.944270,330.687060,887.734310,317.697060,887.734310,304.197060C887.734250,280.737000,855.124390,258.797000,795.914430,242.427000ZM795.374430,364.047000C753.684490,375.577000,702.204510,383.427000,646.114170,386.997000C623.304120,388.447000,599.724530,389.197000,575.734290,389.197000C551.824140,389.197000,528.324140,388.457000,505.584390,387.007000C449.404210,383.447000,397.844160,375.597000,356.094160,364.047000C297.824160,347.927000,265.734290,326.677000,265.734290,304.197000C265.737546,302.210675,265.986176,300.232359,266.474530,298.307000C271.574140,278.027000,302.944250,259.047000,356.094160,244.347000C381.296646,237.558335,406.900357,232.358113,432.754310,228.777000C468.162536,223.823160,503.816213,220.818631,539.554120,219.777000Q557.434730,219.192000,575.734290,219.197000C591.144450,219.197000,606.384190,219.507000,621.364170,220.107000C657.994212,221.474653,694.513104,224.980623,730.734290,230.607000C752.517462,233.993758,774.097009,238.580740,795.374390,244.347000C848.514530,259.047000,879.874390,278.017000,884.984250,298.287000C885.480563,300.217856,885.732532,302.203378,885.734250,304.197000C885.734250,326.677000,853.644410,347.927000,795.374390,364.047000Z" transform="translate(0,0)" fill="rgb(63,61,86)" stroke="none" stroke-width="1"/></g><g id="taken-path4_to" transform="translate(-263.734000,-52.803000)"><path id="taken-path4" d="M887.164430,305.107000C887.164430,318.467050,876.154170,331.107000,856.494020,342.397000C853.224490,344.277000,849.704470,346.117000,845.964230,347.917000C844.984230,348.387000,843.984230,348.857000,842.974490,349.317000C842.704490,349.447000,842.424190,349.577000,842.144410,349.697000C841.754270,349.877000,841.374410,350.047000,840.984250,350.227000C840.474490,350.447000,839.944250,350.677000,839.424190,350.916940Q837.804090,351.621940,836.124390,352.326940C835.444210,352.616940,834.744020,352.906940,834.054080,353.186940C833.354370,353.476940,832.644410,353.756940,831.934450,354.046940C830.514530,354.606940,829.074100,355.176940,827.604370,355.726940C827.064370,355.926940,826.534060,356.126940,825.994020,356.336940C825.354370,356.576940,824.704470,356.816940,824.054080,357.046940C823.274290,357.326940,822.484250,357.616940,821.694210,357.896940C820.964210,358.156940,820.234210,358.416940,819.484210,358.666940C819.164390,358.787000,818.834310,358.896940,818.504210,359.006940C817.724430,359.276940,816.934390,359.546940,816.144350,359.806940C815.564270,360.006940,814.974430,360.196940,814.374350,360.396940Q813.143890,360.801880,811.884110,361.206940C810.734210,361.576940,809.574110,361.936940,808.404110,362.306940C806.974430,362.746940,805.534000,363.186940,804.064270,363.626940C803.993960,363.646940,803.924130,363.666940,803.844060,363.686940C802.154110,364.196940,800.434390,364.686940,798.694150,365.186940C797.824040,365.426940,796.954410,365.676940,796.074040,365.916940C796.019487,365.929017,795.966068,365.945745,795.914370,365.966940C794.993960,366.216940,794.074040,366.466940,793.144370,366.726940C790.564290,367.406940,787.934370,368.096940,785.274250,368.766940C785.064250,368.816940,784.864090,368.866940,784.654130,368.926940C746.304040,378.506940,699.254230,385.486940,647.184410,388.856940C624.374350,390.326940,600.594080,391.106940,576.164410,391.106940C551.514510,391.106940,527.534040,390.316940,504.544290,388.816940C367.304060,379.866940,265.164410,345.786940,265.164410,305.106940C265.175216,302.631679,265.552518,300.171662,266.284040,297.806940C266.344100,297.976940,266.404150,298.136940,266.474470,298.306940C280.744000,335.786940,382.014470,366.076940,513.414410,373.466940C533.544290,374.606890,554.394410,375.196940,575.734230,375.196940C597.164410,375.196940,618.094100,374.596940,638.304060,373.456940C769.594060,366.036940,870.764510,335.736940,884.984230,298.286940Q885.344590,297.386880,885.614110,296.486940C886.627996,299.248339,887.152626,302.165377,887.164430,305.107000Z" transform="translate(0,0)" fill="rgb(63,61,86)" stroke="none" stroke-width="1"/></g><g id="taken-path5_to" transform="translate(-263.734000,-52.803000)"><path id="taken-path5" d="M355.403560,294.343000C338.760860,294.343000,321.072880,290.762430,321.072880,284.126200C321.072880,277.489970,338.760880,273.909400,355.403560,273.909400C372.046240,273.909400,389.734250,277.489970,389.734250,284.126200C389.734250,290.762430,372.046260,294.343000,355.403560,294.343000ZM355.403560,275.909400C336.350560,275.909400,323.072880,280.239970,323.072880,284.126200C323.072880,288.012430,336.350580,292.343000,355.403560,292.343000C374.456540,292.343000,387.734250,288.012430,387.734250,284.126200C387.734250,280.239970,374.456540,275.909390,355.403560,275.909390Z" transform="translate(0,0)" fill="rgb(63,61,86)" stroke="none" stroke-width="1"/></g><g id="taken-path6_to" transform="translate(-263.734000,-52.803000)"><path id="taken-path6" d="M426.403440,341.343000C409.760860,341.343000,392.072880,337.762430,392.072880,331.126200C392.072880,324.489970,409.760880,320.909400,426.403440,320.909400C443.046260,320.909400,460.734250,324.489970,460.734250,331.126200C460.734250,337.762430,443.046260,341.343000,426.403440,341.343000ZM426.403440,322.909400C407.350580,322.909400,394.072880,327.239970,394.072880,331.126200C394.072880,335.012430,407.350580,339.343000,426.403440,339.343000C445.456300,339.343000,458.734250,335.012430,458.734250,331.126200C458.734250,327.239970,445.456420,322.909390,426.403440,322.909390Z" transform="translate(0,0)" fill="rgb(63,61,86)" stroke="none" stroke-width="1"/></g><g id="taken-path7_to" transform="translate(-263.734000,-52.803000)"><path id="taken-path7" d="M795.403440,294.343000C778.760860,294.343000,761.072880,290.762430,761.072880,284.126200C761.072880,277.489970,778.760880,273.909400,795.403440,273.909400C812.046260,273.909400,829.734250,277.489970,829.734250,284.126200C829.734250,290.762430,812.046260,294.343000,795.403440,294.343000ZM795.403440,275.909400C776.350440,275.909400,763.072880,280.239970,763.072880,284.126200C763.072880,288.012430,776.350460,292.343000,795.403440,292.343000C814.456420,292.343000,827.734250,288.012430,827.734250,284.126200C827.734250,280.239970,814.456420,275.909390,795.403440,275.909390Z" transform="translate(0,0)" fill="rgb(63,61,86)" stroke="none" stroke-width="1"/></g><g id="taken-path8_to" transform="translate(-263.734000,-52.803000)"><path id="taken-path8" d="M724.403440,341.343000C707.760860,341.343000,690.072880,337.762430,690.072880,331.126200C690.072880,324.489970,707.760880,320.909400,724.403440,320.909400C741.046260,320.909400,758.734250,324.489970,758.734250,331.126200C758.734250,337.762430,741.046260,341.343000,724.403440,341.343000ZM724.403440,322.909400C705.350440,322.909400,692.072880,327.239970,692.072880,331.126200C692.072880,335.012430,705.350460,339.343000,724.403440,339.343000C743.456420,339.343000,756.734250,335.012430,756.734250,331.126200C756.734250,327.239970,743.456420,322.909390,724.403440,322.909390Z" transform="translate(0,0)" fill="rgb(63,61,86)" stroke="none" stroke-width="1"/></g><g id="taken-path9_to" transform="translate(-263.734000,-52.803000)"><path id="taken-path9" d="M575.403440,363.343000C558.760860,363.343000,541.072880,359.762430,541.072880,353.126200C541.072880,346.489970,558.760880,342.909400,575.403440,342.909400C592.046260,342.909400,609.734250,346.489970,609.734250,353.126200C609.734250,359.762430,592.046260,363.343000,575.403440,363.343000ZM575.403440,344.909400C556.350440,344.909400,543.072880,349.239970,543.072880,353.126200C543.072880,357.012430,556.350460,361.343000,575.403440,361.343000C594.456420,361.343000,607.734250,357.012430,607.734250,353.126200C607.734250,349.239970,594.456420,344.909390,575.403440,344.909390Z" transform="translate(0,0)" fill="rgb(63,61,86)" stroke="none" stroke-width="1"/></g><circle id="taken-circle1" r="42.012300" transform="matrix(1 0 0 1 336.97800000000001 450.70400000000001)" fill="rgb(47,46,65)" stroke="none" stroke-width="1"/><rect id="taken-rect1" width="22.867600" height="12.763300" rx="0" ry="0" transform="matrix(0.89414600000000 -0.44777500000000 0.44777500000000 0.89414600000000 300.55569715199994 488.54511470899996)" fill="rgb(47,46,65)" stroke="none" stroke-width="1"/><ellipse id="taken-ellipse1" rx="3.988530" ry="10.636100" transform="matrix(0.55046300000000 -0.83486000000000 0.83486000000000 0.55046300000000 300.08630394000022 492.94528012400002)" fill="rgb(47,46,65)" stroke="none" stroke-width="1"/><rect id="taken-rect2" width="12.763300" height="22.867600" rx="0" ry="0" transform="matrix(0.44777500000000 -0.89414600000000 0.89414600000000 0.44777500000000 347.23840909199998 489.72028493799996)" fill="rgb(47,46,65)" stroke="none" stroke-width="1"/><ellipse id="taken-ellipse2" rx="10.636100" ry="3.988530" transform="matrix(0.83486000000000 -0.55046300000000 0.55046300000000 0.83486000000000 373.87012076400021 492.94484462800006)" fill="rgb(47,46,65)" stroke="none" stroke-width="1"/><circle id="taken-circle2" r="14.358600" transform="matrix(1 0 0 1 334.03699999999998 440.42800000000000)" fill="rgb(255,255,255)" stroke="none" stroke-width="1"/><ellipse id="taken-ellipse3" rx="4.766240" ry="4.800000" transform="matrix(0.70710700000000 -0.70710700000000 0.70710700000000 0.70710700000000 334.13556407800013 434.28043989800011)" fill="rgb(63,61,86)" stroke="none" stroke-width="1"/><path id="taken-path10" d="M633.854000,485.802330C634.485770,470.248740,621.080860,457.074730,603.913200,456.377400C586.745540,455.680070,572.316280,467.723400,571.684470,483.277000C571.052660,498.830600,582.986380,502.364460,600.154050,503.061850C617.321720,503.759240,633.222140,501.355920,633.854000,485.802330Z" transform="matrix(1 0 0 1 -263.73399999999998 -80.80300000000000)" fill="rgb(114,63,76)" stroke="none" stroke-width="1"/><ellipse id="taken-ellipse4" rx="6.594480" ry="21.006200" transform="matrix(0.75875800000000 -0.65137200000000 0.65137200000000 0.75875800000000 380.65329340000005 456.76572020799995)" fill="rgb(47,46,65)" stroke="none" stroke-width="1"/><ellipse id="taken-ellipse5" rx="21.006200" ry="6.594480" transform="matrix(0.65137200000000 -0.75875800000000 0.75875800000000 0.65137200000000 293.41953583199995 456.76468856399987)" fill="rgb(47,46,65)" stroke="none" stroke-width="1"/><path id="taken-path11" d="M612.250830,548.063800C613.197678,553.265033,609.748818,558.249037,604.547585,559.195885C599.346352,560.142733,594.362348,556.693873,593.415500,551.492640L593.412140,551.474140C592.470370,546.272000,596.492530,544.431140,601.694680,543.489400C606.896830,542.547660,611.309120,542.861660,612.250830,548.063800Z" transform="matrix(1 0 0 1 -263.73399999999998 -80.80300000000000)" fill="rgb(255,255,255)" stroke="none" stroke-width="1"/><path id="taken-path12" d="M529.734250,576.197000C528.629703,576.196945,527.734305,575.301547,527.734250,574.197000L527.734250,456.197000C527.734250,455.092431,528.629681,454.197000,529.734250,454.197000C530.838819,454.197000,531.734250,455.092431,531.734250,456.197000L531.734250,574.197000C531.734195,575.301547,530.838797,576.196945,529.734250,576.197000Z" transform="matrix(1 0 0 1 -263.73399999999998 -80.80300000000000)" fill="rgb(204,204,204)" stroke="none" stroke-width="1"/><path id="taken-path13" d="M499.734250,682.197000C498.629703,682.196945,497.734305,681.301547,497.734250,680.197000L497.734250,594.197000C497.734250,593.092431,498.629681,592.197000,499.734250,592.197000C500.838819,592.197000,501.734250,593.092431,501.734250,594.197000L501.734250,680.197000C501.734195,681.301547,500.838797,682.196945,499.734250,682.197000Z" transform="matrix(1 0 0 1 -263.73399999999998 -80.80300000000000)" fill="rgb(204,204,204)" stroke="none" stroke-width="1"/><path id="taken-path14" d="M576.734250,611.197000C575.629703,611.196945,574.734305,610.301547,574.734250,609.197000L574.734250,491.197000C574.734250,490.092431,575.629681,489.197000,576.734250,489.197000C577.838819,489.197000,578.734250,490.092431,578.734250,491.197000L578.734250,609.197000C578.734195,610.301547,577.838797,611.196945,576.734250,611.197000Z" transform="matrix(1 0 0 1 -263.73399999999998 -80.80300000000000)" fill="rgb(204,204,204)" stroke="none" stroke-width="1"/><path id="taken-path15" d="M547.734250,696.197000C546.629703,696.196945,545.734305,695.301547,545.734250,694.197000L545.734250,646.197000C545.734250,645.092431,546.629681,644.197000,547.734250,644.197000C548.838819,644.197000,549.734250,645.092431,549.734250,646.197000L549.734250,694.197000C549.734195,695.301547,548.838797,696.196945,547.734250,696.197000Z" transform="matrix(1 0 0 1 -263.73399999999998 -80.80300000000000)" fill="rgb(204,204,204)" stroke="none" stroke-width="1"/><path id="taken-path16" d="M588.734250,450.197000C587.629703,450.196945,586.734305,449.301547,586.734250,448.197000L586.734250,400.197000C586.734250,399.092431,587.629681,398.197000,588.734250,398.197000C589.838819,398.197000,590.734250,399.092431,590.734250,400.197000L590.734250,448.197000C590.734195,449.301547,589.838797,450.196945,588.734250,450.197000Z" transform="matrix(1 0 0 1 -263.73399999999998 -80.80300000000000)" fill="rgb(204,204,204)" stroke="none" stroke-width="1"/><path id="taken-path17" d="M488.734250,471.197000C487.629703,471.196945,486.734305,470.301547,486.734250,469.197000L486.734250,421.197000C486.734250,420.092431,487.629681,419.197000,488.734250,419.197000C489.838819,419.197000,490.734250,420.092431,490.734250,421.197000L490.734250,469.197000C490.734195,470.301547,489.838797,471.196945,488.734250,471.197000Z" transform="matrix(1 0 0 1 -263.73399999999998 -80.80300000000000)" fill="rgb(204,204,204)" stroke="none" stroke-width="1"/><path id="taken-path18" d="M662.734250,476.197000C661.629703,476.196945,660.734305,475.301547,660.734250,474.197000L660.734250,426.197000C660.734250,425.092431,661.629681,424.197000,662.734250,424.197000C663.838819,424.197000,664.734250,425.092431,664.734250,426.197000L664.734250,474.197000C664.734195,475.301547,663.838797,476.196945,662.734250,476.197000Z" transform="matrix(1 0 0 1 -263.73399999999998 -80.80300000000000)" fill="rgb(204,204,204)" stroke="none" stroke-width="1"/><path id="taken-path19" d="M658.734250,626.197000C657.629703,626.196945,656.734305,625.301547,656.734250,624.197000L656.734250,566.197000C656.734250,565.092431,657.629681,564.197000,658.734250,564.197000C659.838819,564.197000,660.734250,565.092431,660.734250,566.197000L660.734250,624.197000C660.734195,625.301547,659.838797,626.196945,658.734250,626.197000Z" transform="matrix(1 0 0 1 -263.73399999999998 -80.80300000000000)" fill="rgb(204,204,204)" stroke="none" stroke-width="1"/><path id="taken-path20" d="M618.734250,677.197000C617.629703,677.196945,616.734305,676.301547,616.734250,675.197000L616.734250,589.197000C616.734250,588.092431,617.629681,587.197000,618.734250,587.197000C619.838819,587.197000,620.734250,588.092431,620.734250,589.197000L620.734250,675.197000C620.734195,676.301547,619.838797,677.196945,618.734250,677.197000Z" transform="matrix(1 0 0 1 -263.73399999999998 -80.80300000000000)" fill="rgb(204,204,204)" stroke="none" stroke-width="1"/><path id="taken-path21" d="M626.734250,530.197000C625.629703,530.196945,624.734305,529.301547,624.734250,528.197000L624.734250,410.197000C624.734250,409.092431,625.629681,408.197000,626.734250,408.197000C627.838819,408.197000,628.734250,409.092431,628.734250,410.197000L628.734250,528.197000C628.734195,529.301547,627.838797,530.196945,626.734250,530.197000Z" transform="matrix(1 0 0 1 -263.73399999999998 -80.80300000000000)" fill="rgb(204,204,204)" stroke="none" stroke-width="1"/><ellipse id="taken-ellipse6" rx="6.760070" ry="21.533700" transform="matrix(0.76673500000000 -0.64196300000000 0.64196300000000 0.76673500000000 594.36875946900011 683.97987535300012)" fill="rgb(47,46,65)" stroke="none" stroke-width="1"/><circle id="taken-circle3" r="43.067300" transform="matrix(0.31622800000000 -0.94868300000000 0.94868300000000 0.31622800000000 548.56143503100020 676.49869068900011)" fill="rgb(47,46,65)" stroke="none" stroke-width="1"/><rect id="taken-rect3" width="13.083700" height="23.441700" rx="0" ry="0" transform="matrix(1 0 0 1 553.70699999999999 710.30200000000002)" fill="rgb(47,46,65)" stroke="none" stroke-width="1"/><rect id="taken-rect4" width="13.083700" height="23.441700" rx="0" ry="0" transform="matrix(1 0 0 1 527.53999999999996 710.30200000000002)" fill="rgb(47,46,65)" stroke="none" stroke-width="1"/><ellipse id="taken-ellipse7" rx="10.903100" ry="4.088680" transform="matrix(1 0 0 1 555.88800000000003 734.01599999999996)" fill="rgb(47,46,65)" stroke="none" stroke-width="1"/><ellipse id="taken-ellipse8" rx="10.903100" ry="4.088680" transform="matrix(1 0 0 1 529.72000000000003 733.47100000000000)" fill="rgb(47,46,65)" stroke="none" stroke-width="1"/><path id="taken-path22" d="M798.773650,703.168530C802.619220,687.681530,819.594220,678.567770,836.688360,682.812360C853.782500,687.056950,864.522640,703.052640,860.677070,718.539650C856.831500,734.026660,844.073130,734.076650,826.978980,729.831980C809.884830,725.587310,794.928060,718.655570,798.773650,703.168530Z" transform="matrix(1 0 0 1 -263.73399999999998 -80.80300000000000)" fill="rgb(204,204,204)" stroke="none" stroke-width="1"/><ellipse id="taken-ellipse9" rx="6.760070" ry="21.533700" transform="matrix(0.42852900000000 -0.90352800000000 0.90352800000000 0.42852900000000 500.05337986799998 656.52001527400012)" fill="rgb(47,46,65)" stroke="none" stroke-width="1"/><circle id="taken-circle4" r="14.358600" transform="matrix(1 0 0 1 542.12400000000002 667.41499999999996)" fill="rgb(255,255,255)" stroke="none" stroke-width="1"/><circle id="taken-circle5" r="4.786220" transform="matrix(1 0 0 1 536.22199999999998 662.26800000000003)" fill="rgb(63,61,86)" stroke="none" stroke-width="1"/><circle id="taken-circle6" r="6" transform="matrix(1 0 0 1 542 697.39400000000001)" fill="rgb(255,255,255)" stroke="none" stroke-width="1"/><path id="taken-path23" d="M935.265750,819.197000L699.265750,819.197000C698.713465,819.197000,698.265750,818.749285,698.265750,818.197000C698.265750,817.644715,698.713465,817.197000,699.265750,817.197000L935.265750,817.197000C935.818035,817.197000,936.265750,817.644715,936.265750,818.197000C936.265750,818.749285,935.818035,819.197000,935.265750,819.197000Z" transform="matrix(1 0 0 1 -263.73399999999998 -80.80300000000000)" fill="rgb(63,61,86)" stroke="none" stroke-width="1"/></svg>